<svg height="511pt" viewBox="0 -128 511.99801 511" width="511pt" xmlns="http://www.w3.org/2000/svg"><g fill="#5dcd11"><path d="m511.996094 151.285156c0 16.394532-13.289063 29.683594-29.683594 29.683594-16.390625 0-29.683594-13.289062-29.683594-29.683594 0-16.394531 13.292969-29.683594 29.683594-29.683594 16.394531 0 29.683594 13.289063 29.683594 29.683594zm0 0"/><path d="m105.875 148.066406 33.980469-32.46875c10.355469-9.894531 10.730469-26.304687.835937-36.660156-9.894531-10.351562-26.304687-10.726562-36.660156-.832031l-52.171875 49.851562v-101.527343c0-14.320313-11.609375-25.929688-25.929687-25.929688-14.320313 0-25.929688 11.609375-25.929688 25.929688v203.527343c0 14.320313 11.609375 25.925781 25.929688 25.925781 14.320312.003907 25.929687-11.605468 25.929687-25.925781v-30.273437l16.21875-15.5 45.082031 61.15625v.003906c8.5 11.523438 24.730469 13.980469 36.257813 5.484375 11.527343-8.5 13.984375-24.730469 5.484375-36.257813zm0 0"/><path d="m218.066406 70.089844c-14.320312 0-25.929687 11.609375-25.929687 25.929687v133.9375c0 14.320313 11.609375 25.925781 25.929687 25.925781 14.320313.003907 25.929688-11.605468 25.929688-25.925781v-133.9375c-.003906-14.320312-11.609375-25.929687-25.929688-25.929687zm0 0"/><path d="m385.363281 148.066406 33.980469-32.46875c10.355469-9.894531 10.726562-26.304687.835938-36.660156-9.894532-10.351562-26.308594-10.726562-36.660157-.832031l-52.175781 49.851562v-101.527343c0-14.320313-11.609375-25.929688-25.929688-25.929688-14.316406 0-25.925781 11.609375-25.925781 25.929688v203.527343c0 14.320313 11.609375 25.925781 25.925781 25.925781 14.320313 0 25.929688-11.609374 25.929688-25.925781v-30.273437l16.222656-15.5 45.082032 61.15625v.003906c8.496093 11.523438 24.730468 13.980469 36.257812 5.484375 11.527344-8.5 13.980469-24.730469 5.484375-36.257813zm0 0"/></g></svg>