<svg height="512pt" viewBox="-54 0 511 512" width="512pt" xmlns="http://www.w3.org/2000/svg"><path d="m368.714844 208.691406c0 92.6875-75.136719 167.824219-167.824219 167.824219-92.683594 0-167.820313-75.136719-167.820313-167.824219 0-92.683594 75.136719-167.820312 167.820313-167.820312 92.6875 0 167.824219 75.136718 167.824219 167.820312zm0 0" fill="#fff"/><path d="m201.800781 0c-111.175781 0-201.300781 90.125-201.300781 201.300781 0 132.140625 163.6875 310.699219 201.300781 310.699219s201.300781-173.527344 201.300781-310.699219c0-111.175781-90.125-201.300781-201.300781-201.300781zm-.910156 351.976562c-79.132813 0-143.28125-64.152343-143.28125-143.285156 0-79.132812 64.148437-143.28125 143.28125-143.28125 79.136719 0 143.285156 64.148438 143.285156 143.28125 0 79.132813-64.148437 143.285156-143.285156 143.285156zm0 0" fill="#00a4c3"/><path d="m200.890625 93.085938c-3.554687 0-7.066406.1875-10.542969.5 8.535156 9.855468 13.710938 22.699218 13.710938 36.761718 0 31.039063-25.164063 56.199219-56.203125 56.199219-21.734375 0-40.574219-12.347656-49.925781-30.402344-8.0625 15.769531-12.644532 33.617188-12.644532 52.546875 0 63.847656 51.757813 115.605469 115.605469 115.605469s115.601563-51.757813 115.601563-115.605469c.003906-63.847656-51.753907-115.605468-115.601563-115.605468zm0 0" fill="#ff4b30"/></svg>