<svg height="512pt" viewBox="0 0 512 512" width="512pt" xmlns="http://www.w3.org/2000/svg"><path d="m483.738281 0h-455.5c-15.597656.0078125-28.24218725 12.660156-28.238281 28.261719v455.5c.0078125 15.597656 12.660156 28.242187 28.261719 28.238281h455.476562c15.605469.003906 28.257813-12.644531 28.261719-28.25 0-.003906 0-.007812 0-.011719v-455.5c-.007812-15.597656-12.660156-28.24218725-28.261719-28.238281zm0 0" fill="#fffc01"/><path d="m258.898438 471.539062c-1.183594 0-2.34375-.035156-3.511719-.09375-.746094.066407-1.519531.09375-2.292969.09375-27.207031 0-44.667969-12.339843-61.558594-24.285156-11.660156-8.238281-22.667968-16.019531-35.628906-18.175781-6.324219-1.050781-12.628906-1.574219-18.703125-1.574219-10.972656 0-19.613281 1.691406-25.933594 2.921875-3.832031.757813-7.144531 1.398438-9.660156 1.398438-2.632813 0-5.472656-.566407-6.714844-4.796875-1.074219-3.667969-1.847656-7.207032-2.601562-10.648438-1.929688-8.828125-3.296875-14.261718-6.996094-14.828125-43.152344-6.664062-55.511719-15.761719-58.261719-22.207031-.382812-.917969-.617187-1.847656-.660156-2.757812-.140625-2.484376 1.609375-4.671876 4.066406-5.066407 66.332032-10.921875 96.078125-78.726562 97.320313-81.605469.027343-.074218.066406-.15625.101562-.230468 4.0625-8.230469 4.855469-15.375 2.371094-21.234375-4.546875-10.71875-19.398437-15.433594-29.230469-18.550781-2.398437-.765626-4.679687-1.484376-6.480468-2.199219-19.613282-7.753907-21.242188-15.703125-20.46875-19.761719 1.316406-6.914062 10.546874-11.730469 18.019531-11.730469 2.042969 0 3.84375.367188 5.363281 1.078125 8.828125 4.128906 16.769531 6.222656 23.640625 6.222656 9.480469 0 13.621094-3.980468 14.121094-4.507812-.246094-4.488281-.539063-9.175781-.847657-14.019531-1.972656-31.355469-4.429687-70.332031 5.5-92.574219 29.738282-66.675781 92.796876-71.859375 111.417969-71.859375.476563 0 8.164063-.082031 8.164063-.082031h1.101562c18.65625 0 81.859375 5.1875 111.617188 71.90625 9.921875 22.25 7.464844 61.257812 5.488281 92.589844l-.082031 1.371093c-.277344 4.355469-.542969 8.597657-.765625 12.660157.476562.484374 4.285156 4.148437 12.871093 4.480468h.007813c6.539063-.25 14.039063-2.335937 22.277344-6.1875 2.410156-1.132812 5.097656-1.371094 6.914062-1.371094 2.800781 0 5.617188.542969 7.964844 1.519532l.148437.0625c6.65625 2.367187 11.023438 7.023437 11.121094 11.90625.089844 4.597656-3.425781 11.503906-20.625 18.300781-1.785156.707031-4.066406 1.425781-6.484375 2.199219-9.835937 3.117187-24.679687 7.832031-29.230469 18.554687-2.480468 5.855469-1.691406 12.992188 2.375 21.222657.035157.082031.074219.15625.109376.238281 1.230468 2.878906 30.945312 70.667969 97.320312 81.597656 2.445312.40625 4.199219 2.589844 4.0625 5.066406-.054688.925781-.28125 1.863281-.679688 2.773438-2.742187 6.398437-15.078124 15.484375-58.238281 22.152343-3.53125.539063-4.902343 5.140626-7.007812 14.777344-.765625 3.503906-1.535157 6.949219-2.601563 10.570313-.917968 3.148437-2.875 4.617187-6.179687 4.617187h-.53125c-2.289063 0-5.535157-.414062-9.65625-1.222656-7.3125-1.425781-15.503907-2.742188-25.929688-2.742188-6.089843 0-12.386719.523438-18.71875 1.574219-12.949219 2.160157-23.945312 9.921875-35.585937 18.152344-16.921875 11.964844-34.382813 24.304687-61.597656 24.304687" fill="#fff"/><path d="m260.53125 45.320312c17.664062 0 78.507812 4.746094 107.179688 69.023438 9.445312 21.160156 7.023437 59.503906 5.082031 90.304688-.316407 4.890624-.605469 9.625-.847657 14.152343l-.109374 1.9375 1.308593 1.453125c.515625.582032 5.421875 5.707032 16.335938 6.132813l.183593.007812.175782-.007812c7.214844-.277344 15.34375-2.511719 24.183594-6.648438 1.289062-.609375 3.023437-.902343 4.855468-.902343 2.085938 0 4.304688.386718 6.128906 1.160156l.277344.109375c4.625 1.617187 7.898438 4.679687 7.953125 7.445312.027344 1.574219-1.148437 7.199219-17.550781 13.679688-1.609375.636719-3.722656 1.308593-6.171875 2.078125-10.679687 3.390625-26.804687 8.503906-32.238281 21.285156-3.050782 7.214844-2.226563 15.722656 2.492187 25.285156 1.941407 4.511719 32.402344 73.171875 100.996094 84.476563-.015625.320312-.101563.679687-.285156 1.097656-1.15625 2.742187-8.550781 12.195313-54.527344 19.285156-7.199219 1.113281-8.957031 9.179688-11.003906 18.554688-.726563 3.347656-1.492188 6.730469-2.519531 10.234375-.3125 1.058594-.367188 1.125-1.507813 1.125h-.542969c-2.03125 0-5.136718-.425782-8.726562-1.125-6.519532-1.277344-15.445313-2.839844-26.859375-2.839844-6.363281 0-12.925781.558594-19.507813 1.648438-14.070312 2.339843-25.515625 10.4375-37.636718 18.992187-16.265626 11.515625-33.09375 23.402344-58.753907 23.402344-1.113281 0-2.207031-.035157-3.308593-.09375l-.285157.007812-.292969.015625c-.625.058594-1.261718.082032-1.914062.082032-25.664062 0-42.492188-11.886719-58.753906-23.390626-12.121094-8.570312-23.566406-16.660156-37.628906-19.007812-6.582032-1.085938-13.144532-1.648438-19.507813-1.648438-11.414063 0-20.34375 1.738282-26.867187 3.015626-3.585938.707031-6.683594 1.308593-8.722657 1.308593-1.660156 0-1.691406-.09375-2.042969-1.300781-1.03125-3.503906-1.792968-6.976562-2.515624-10.328125-2.050782-9.378906-3.824219-17.484375-11.007813-18.601563-45.984375-7.097656-53.363281-16.566406-54.535156-19.300781-.183594-.421875-.257813-.796875-.277344-1.121093 68.585937-11.304688 99.058594-79.953126 100.996094-84.484376 4.707031-9.5625 5.546875-18.058593 2.484375-25.277343-5.425782-12.789063-21.550782-17.902344-32.238282-21.292969-2.449218-.773438-4.558593-1.441406-6.164062-2.074219-13.867188-5.484375-18.125-10.988281-17.476562-14.335937.726562-3.851563 7.414062-7.773438 13.238281-7.773438 1.308593 0 2.457031.203125 3.300781.609375 9.472656 4.429688 18.125 6.683594 25.699219 6.683594 11.917969 0 17.234375-5.546875 17.792969-6.183594l1.296874-1.441406-.109374-1.929687c-.238282-4.523438-.539063-9.25-.847657-14.136719-1.941406-30.8125-4.355469-69.125 5.082031-90.292969 28.558594-64.042969 89.101563-68.980469 106.976563-68.980469.441406 0 8.214844-.074219 8.214844-.074219zm0-9.71875h-1.164062s-7.515626.074219-8.113282.074219c-19.34375 0-84.917968 5.398438-115.847656 74.75-10.40625 23.332031-7.917969 62.964844-5.914062 94.808594.238281 3.75.488281 7.648437.699218 11.417969-1.601562.882812-4.523437 1.984375-9.121094 1.984375-6.140624 0-13.398437-1.929688-21.574218-5.765625-2.167969-1.007813-4.671875-1.523438-7.429688-1.523438-9.570312 0-21.019531 6.296875-22.792968 15.675782-1.289063 6.757812 1.738281 16.617187 23.457031 25.195312 1.957031.78125 4.3125 1.523438 6.804687 2.304688 8.972656 2.851562 22.535156 7.15625 26.222656 15.828124 1.902344 4.496094 1.140626 10.277344-2.261718 17.175782-.074219.15625-.148438.316406-.210938.476562-1.195312 2.773438-29.902344 68.21875-93.640625 78.710938-4.898437.808594-8.40625 5.1875-8.128906 10.140625.082031 1.480469.433594 2.941406 1.03125 4.367187 4.789063 11.179688 24.964844 19.382813 61.707031 25.082032 1.234375 1.65625 2.511719 7.523437 3.292969 11.097656.765625 3.53125 1.554687 7.164062 2.683594 11.003906 1.101562 3.773438 3.980469 8.273438 11.371093 8.273438 2.992188 0 6.523438-.691407 10.59375-1.488282 6.125-1.199218 14.511719-2.832031 25.003907-2.832031 5.820312 0 11.851562.503906 17.917969 1.507813 11.851562 1.972656 21.933593 9.101562 33.589843 17.339843 16.707031 11.816407 35.628907 25.183594 64.382813 25.183594.789062 0 1.582031-.015625 2.371094-.082031.929687.046875 2.144531.082031 3.433593.082031 28.761719 0 47.683594-13.367187 64.375-25.171875 11.6875-8.257812 21.757813-15.378906 33.605469-17.351562 6.070312-1.003907 12.101562-1.507813 17.917969-1.507813 10.015625 0 17.929687 1.265625 24.992187 2.648437 4.433594.871094 7.992188 1.3125 10.59375 1.3125h.542969c5.464844 0 9.316406-2.886718 10.839844-8.117187 1.113281-3.761719 1.902343-7.300781 2.683593-10.890625.78125-3.566406 2.050782-9.402344 3.273438-11.058594 36.757812-5.695312 56.933594-13.878906 61.714844-25.015625.605468-1.425781.964844-2.90625 1.046875-4.394531.277343-4.96875-3.222657-9.324219-8.128907-10.132812-63.765624-10.507813-92.457031-75.941407-93.640624-78.714844-.066407-.160156-.140626-.316406-.21875-.46875-3.398438-6.90625-4.15625-12.679688-2.25-17.175782 3.679687-8.671874 17.242187-12.972656 26.214843-15.816406 2.507813-.800781 4.863281-1.558594 6.804688-2.316406 15.894531-6.28125 23.867187-13.988281 23.707031-22.917969-.140625-7.015625-5.597656-13.269531-14.28125-16.367187l-.023438-.007813c-2.917968-1.214843-6.382812-1.875-9.773437-1.875-2.324219 0-5.765625.3125-8.980469 1.820313-7.558594 3.542968-14.355468 5.472656-20.210937 5.730468-3.890625-.175781-6.429688-1.15625-7.878907-1.957031.183594-3.226562.390626-6.554687.605469-10.03125l.082031-1.351562c2.015626-31.859375 4.507813-71.523438-5.902343-94.871094-30.960938-69.390625-96.671875-74.789063-116.074219-74.789063" fill="#030303"/></svg>