<svg xmlns="http://www.w3.org/2000/svg" width="1994px" height="1197px" viewBox="0 0 1994 1197" xmlns:xlink="http://www.w3.org/1999/xlink" style="overflow: hidden; display: block; width: 1994px; height: 1197px;"><defs><path fill="rgb(0,0,0)" stroke="rgb(0,0,0)" d="M 0,0 L 10,-5 L 5,0 L 10,5 Z" fill-opacity="1" stroke-opacity="1" stroke-width="1" stroke-linecap="butt" stroke-linejoin="miter" stroke-miterlimit="10" id="ygc606_0"/><path fill="rgb(0,0,0)" stroke="rgb(0,0,0)" d="M 0,0 L 5,-5 L 3,0 L 5,5 Z" fill-opacity="1" stroke-opacity="1" stroke-width="1" stroke-linecap="butt" stroke-linejoin="miter" stroke-miterlimit="10" id="ygc606_1"/></defs><g style="pointer-events:visiblePainted" transform="matrix(2.3 0 0 2.3 734.6203125000001 724.5877435535851)" image-rendering="auto" shape-rendering="auto"><g><path fill="none" stroke="rgb(0,0,0)" d="M 50.627969157958034,68.57671796799468 L -119.15673126105851,-23.195584518239308" stroke-opacity="1" stroke-width="0.75" stroke-linecap="butt" stroke-linejoin="miter" stroke-miterlimit="10"/><use xlink:href="#ygc606_0" transform="matrix(0.8797134736736605 0.4755041579597615 -0.4755041579597615 0.8797134736736605 -123.55529862942682 -25.573105308038116)" style="pointer-events: none;"/><use xlink:href="#ygc606_0" transform="matrix(-0.8797134736736605 -0.4755041579597615 0.4755041579597615 -0.8797134736736605 55.02653652632634 70.95423875779349)" style="pointer-events: none;"/></g><g><path fill="none" stroke="rgb(0,0,0)" d="M 143.49047644927177,67.17525742995579 L 315.85879043788316,-31.338772577996735 L 326.9167207792208,-31.338772577996735" stroke-opacity="1" stroke-width="0.75" stroke-linecap="butt" stroke-linejoin="miter" stroke-miterlimit="10"/><use xlink:href="#ygc606_0" transform="matrix(-1 0 0 -1 331.9167207792208 -31.338772577996735)" style="pointer-events: none;"/><use xlink:href="#ygc606_0" transform="matrix(0.8682044082119619 -0.49620671656207643 0.49620671656207643 0.8682044082119619 139.14945440821197 69.65629101276618)" style="pointer-events: none;"/></g><g><path fill="none" stroke="rgb(0,0,0)" d="M 97.09375,52.911227422003265 L 97.09375000000006,-199.82225694444446" stroke-opacity="1" stroke-width="0.75" stroke-linecap="butt" stroke-linejoin="miter" stroke-miterlimit="10"/><use xlink:href="#ygc606_1" transform="matrix(-2.249144746423415e-16 1 -1 -2.249144746423415e-16 97.09375000000006 -202.1151501632579)" style="pointer-events: none;"/></g><g transform="translate(291.9375 -85.15127257799674)"><g transform="translate(0 0)"><rect x="0" y="0" width="174.25" height="107.625" rx="6" ry="6" stroke="rgb(0,0,0)" stroke-opacity="1" stroke-width="1" stroke-linecap="butt" stroke-linejoin="miter" stroke-miterlimit="10" fill="rgb(250,250,250)" fill-opacity="1"/><rect x="2" y="2" width="170.25" height="103.625" rx="4" ry="4" stroke="rgb(0,0,0)" stroke-opacity="1" stroke-width="1" stroke-linecap="butt" stroke-linejoin="miter" stroke-miterlimit="10" fill="rgb(250,250,250)" fill-opacity="1"/></g></g><g><svg xmlns="http://www.w3.org/2000/svg" xmlns:xlink="http://www.w3.org/1999/xlink" version="1.1" id="Ebene_4" x="-204.0625" y="-103.1875" width="106.3125" height="125.66122436523438" viewBox="0 0 70 70" enable-background="new 0 0 70 70" xml:space="preserve" preserveAspectRatio="none">
<linearGradient id="SVGID_1__ygc0_" gradientUnits="userSpaceOnUse" x1="247.6768" y1="812.8428" x2="197.8346" y2="812.8428" gradientTransform="matrix(1 0 0 1 -195.2002 -770.8008)">
	<stop offset="0" style="stop-color:#4D4D4D"/>
	<stop offset="1" style="stop-color:#8D8D8D"/>
</linearGradient>
<rect x="17.5" y="15.184" fill="url(#SVGID_1__ygc0_)" width="34.977" height="53.716"/>
<g>
	
		<linearGradient id="SVGID_2__ygc0_" gradientUnits="userSpaceOnUse" x1="242.1807" y1="812.8428" x2="218.1973" y2="812.8428" gradientTransform="matrix(1 0 0 1 -195.2002 -770.8008)">
		<stop offset="0.0319" style="stop-color:#848484"/>
		<stop offset="0.1202" style="stop-color:#8C8C8C"/>
		<stop offset="0.308" style="stop-color:#969696"/>
		<stop offset="0.5394" style="stop-color:#999999"/>
		<stop offset="0.5501" style="stop-color:#9C9C9C"/>
		<stop offset="0.6256" style="stop-color:#B0B0B0"/>
		<stop offset="0.7118" style="stop-color:#BEBEBE"/>
		<stop offset="0.8178" style="stop-color:#C7C7C7"/>
		<stop offset="1" style="stop-color:#C9C9C9"/>
	</linearGradient>
	<path fill="url(#SVGID_2__ygc0_)" d="M22.997,15.184c7.945-1.258,16.04-1.258,23.983,0c0,17.905,0,35.811,0,53.716   c-7.943,1.258-16.039,1.258-23.983,0C22.997,50.994,22.997,33.089,22.997,15.184z"/>
</g>
<g>
	<path fill="#515151" d="M22.997,28.862c7.995,0,15.989,0,23.983,0c0,13.346,0,26.693,0,40.037c-7.943,1.258-16.039,1.258-23.983,0   C22.997,55.555,22.997,42.208,22.997,28.862z"/>
</g>
<path opacity="0.43" fill="#565656" d="M22.997,18.986c7.982-0.628,16.001-0.628,23.983,0c0,2.707,0,5.413,0,8.12  c-7.994,0-15.989,0-23.983,0C22.997,24.399,22.997,21.693,22.997,18.986z"/>
<path opacity="0.43" fill="none" stroke="#4D4D4D" stroke-width="0.0999" stroke-miterlimit="10" d="M22.997,18.986  c7.982-0.628,16.001-0.628,23.983,0c0,2.707,0,5.413,0,8.12c-7.994,0-15.989,0-23.983,0C22.997,24.399,22.997,21.693,22.997,18.986z  "/>
<polygon opacity="0.43" fill="#565656" stroke="#4D4D4D" stroke-width="0.0135" stroke-miterlimit="10" enable-background="new    " points="  23.996,19.987 27.369,19.847 27.369,20.902 23.996,21.04 "/>
<rect x="48.807" y="16.758" fill="#E7ED00" stroke="#717171" stroke-width="0.1926" stroke-miterlimit="10" width="3.692" height="1.505"/>
<rect x="48.807" y="20.041" fill="#C8FF00" stroke="#717171" stroke-width="0.1926" stroke-miterlimit="10" width="3.692" height="1.507"/>
<g id="grid_ygc0_">
	<linearGradient id="SVGID_3__ygc0_" gradientUnits="userSpaceOnUse" x1="46.9414" y1="49.3643" x2="22.9995" y2="49.3643">
		<stop offset="0" style="stop-color:#808080"/>
		<stop offset="0.1907" style="stop-color:#828282"/>
		<stop offset="0.2955" style="stop-color:#8A8A8A"/>
		<stop offset="0.3795" style="stop-color:#989898"/>
		<stop offset="0.4524" style="stop-color:#ACACAC"/>
		<stop offset="0.5175" style="stop-color:#C5C5C5"/>
		<stop offset="0.5273" style="stop-color:#C9C9C9"/>
		<stop offset="0.5914" style="stop-color:#C9C9C9"/>
		<stop offset="0.9681" style="stop-color:#C9C9C9"/>
	</linearGradient>
	<path fill="url(#SVGID_3__ygc0_)" d="M23,29.063c0,13.22,0,26.438,0,39.66c7.931,1.256,16.012,1.256,23.941,0c0-13.222,0-26.439,0-39.66   C38.961,29.063,30.98,29.063,23,29.063z M45.896,32.944c-0.74,0.01-1.482,0.02-2.225,0.029c0-0.951,0-1.901-0.001-2.85   c0.742-0.003,1.483-0.005,2.224-0.008C45.896,31.058,45.896,32.001,45.896,32.944z M33.854,56.736c0-0.961,0-1.924,0-2.885   c0.744,0.006,1.489,0.006,2.233,0c0,0.961,0,1.924,0,2.885C35.343,56.744,34.598,56.744,33.854,56.736z M36.087,57.809   c0,0.955,0,1.91,0,2.866c-0.744,0.009-1.489,0.009-2.234,0c0-0.956,0-1.911,0-2.866C34.598,57.814,35.343,57.814,36.087,57.809z    M36.086,41.982c0,0.961,0,1.922,0,2.886c-0.744,0.004-1.488,0.004-2.231,0c0-0.964,0-1.925,0-2.886   C34.599,41.986,35.342,41.986,36.086,41.982z M33.854,40.912c0-0.955,0-1.91,0-2.865c0.743,0.002,1.487,0.002,2.23,0   c0,0.955,0,1.91,0,2.865C35.342,40.916,34.599,40.916,33.854,40.912z M33.854,48.824c0-0.961,0-1.924,0-2.885   c0.744,0.004,1.488,0.004,2.231,0c0,0.961,0,1.924,0,2.885C35.342,48.829,34.599,48.829,33.854,48.824z M36.086,49.896   c0,0.961,0,1.924,0.001,2.885c-0.745,0.008-1.489,0.008-2.233,0c0-0.961,0-1.924,0-2.885C34.599,49.9,35.342,49.9,36.086,49.896z    M32.807,44.859c-0.742-0.01-1.484-0.021-2.227-0.039c0-0.957,0-1.916,0-2.875c0.742,0.014,1.485,0.023,2.226,0.029   C32.807,42.936,32.807,43.896,32.807,44.859z M32.807,45.93c0,0.961,0,1.924,0,2.885c-0.742-0.012-1.485-0.025-2.227-0.047   c0-0.959,0.001-1.92,0.001-2.877C31.322,45.908,32.065,45.921,32.807,45.93z M32.807,49.885c0,0.959,0,1.922-0.001,2.883   c-0.742-0.012-1.485-0.031-2.228-0.056c0-0.959,0.001-1.918,0.001-2.877C31.321,49.857,32.064,49.874,32.807,49.885z    M32.806,53.838c0,0.96,0,1.922,0,2.883c-0.742-0.016-1.486-0.037-2.228-0.064c0-0.959,0-1.916,0.001-2.877   C31.32,53.805,32.063,53.826,32.806,53.838z M37.137,53.838c0.742-0.012,1.484-0.033,2.227-0.059c0,0.959,0,1.918,0,2.875   c-0.741,0.029-1.483,0.052-2.227,0.064C37.137,55.76,37.137,54.8,37.137,53.838z M37.137,52.768c0-0.961,0-1.924,0-2.883   c0.74-0.012,1.482-0.027,2.225-0.05c0,0.959,0,1.918,0.002,2.876C38.621,52.736,37.877,52.756,37.137,52.768z M37.137,48.813   c0-0.961,0-1.922-0.002-2.883c0.741-0.01,1.483-0.021,2.225-0.039c0.002,0.957,0.002,1.916,0.002,2.875   C38.619,48.788,37.876,48.805,37.137,48.813z M37.135,44.859c0-0.963,0-1.924,0-2.885c0.74-0.006,1.483-0.017,2.225-0.029   c0,0.959,0,1.916,0,2.875C38.618,44.84,37.876,44.85,37.135,44.859z M37.133,40.906c0-0.955,0-1.909,0-2.864   c0.741-0.005,1.483-0.013,2.227-0.021c0,0.951,0,1.903,0,2.856C38.618,40.891,37.875,40.9,37.133,40.906z M37.133,36.973   c-0.001-0.963-0.001-1.924-0.001-2.885c0.741-0.002,1.483-0.006,2.226-0.012c0,0.959,0.002,1.918,0.002,2.877   C38.616,36.961,37.874,36.969,37.133,36.973z M36.086,36.977c-0.744,0.002-1.487,0.002-2.23,0c0-0.963,0-1.924,0-2.887   c0.743,0.002,1.487,0.002,2.23,0C36.086,35.053,36.086,36.014,36.086,36.977z M32.809,36.973c-0.742-0.004-1.483-0.012-2.226-0.02   c0-0.959,0.001-1.918,0.001-2.877c0.742,0.006,1.484,0.01,2.226,0.012C32.81,35.049,32.809,36.01,32.809,36.973z M32.809,38.042   c0,0.955,0,1.91,0,2.864c-0.742-0.006-1.483-0.016-2.227-0.027c0-0.953,0-1.906,0-2.859C31.325,38.029,32.066,38.037,32.809,38.042   z M29.536,40.857c-0.742-0.017-1.483-0.033-2.225-0.055c0-0.947,0-1.895,0.001-2.841c0.741,0.019,1.483,0.031,2.225,0.042   C29.537,38.957,29.536,39.906,29.536,40.857z M29.535,41.924c0,0.957,0,1.916,0,2.873c-0.742-0.021-1.483-0.047-2.225-0.076   c0-0.953,0-1.904,0-2.857C28.052,41.887,28.793,41.908,29.535,41.924z M29.535,45.861c0,0.957-0.001,1.914-0.001,2.871   c-0.742-0.023-1.483-0.055-2.224-0.092c0-0.953,0-1.906,0-2.859C28.051,45.813,28.792,45.841,29.535,45.861z M29.533,49.801   c0,0.956-0.001,1.914-0.001,2.871c-0.742-0.031-1.484-0.066-2.225-0.111c0-0.953,0.001-1.906,0.001-2.858   C28.049,49.74,28.791,49.773,29.533,49.801z M29.531,53.738c0,0.955,0,1.914-0.001,2.869c-0.742-0.035-1.484-0.078-2.225-0.129   c0-0.953,0-1.904,0.001-2.857C28.047,53.667,28.789,53.706,29.531,53.738z M29.53,57.676c0,0.951-0.001,1.901-0.001,2.854   c-0.742-0.041-1.484-0.09-2.225-0.149c0-0.944,0.001-1.892,0.001-2.838C28.046,57.594,28.788,57.641,29.53,57.676z M30.577,57.723   c0.743,0.031,1.486,0.053,2.228,0.067c0,0.956,0,1.91,0,2.864c-0.742-0.016-1.486-0.041-2.229-0.074   C30.577,59.63,30.577,58.676,30.577,57.723z M32.805,61.727c0,0.961,0,1.922,0,2.883c-0.743-0.019-1.487-0.047-2.23-0.084   c0-0.959,0-1.918,0.001-2.875C31.318,61.684,32.062,61.709,32.805,61.727z M33.853,61.745c0.745,0.009,1.49,0.009,2.234,0   c0.001,0.96,0.001,1.924,0.001,2.883c-0.745,0.011-1.49,0.011-2.235,0C33.853,63.668,33.853,62.705,33.853,61.745z M37.139,61.727   c0.741-0.018,1.483-0.043,2.227-0.076c0,0.957,0.002,1.916,0.002,2.875c-0.742,0.037-1.486,0.065-2.229,0.084   C37.139,63.646,37.139,62.688,37.139,61.727z M37.137,60.654c0-0.954,0-1.908,0-2.864c0.742-0.015,1.484-0.036,2.229-0.067   c0,0.953,0,1.905,0,2.857C38.622,60.613,37.879,60.639,37.137,60.654z M40.411,57.676c0.741-0.035,1.483-0.082,2.224-0.135   c0,0.945,0,1.895,0.002,2.838c-0.74,0.059-1.482,0.107-2.226,0.15C40.411,59.577,40.411,58.627,40.411,57.676z M40.411,56.609   c-0.001-0.957-0.001-1.914-0.002-2.871c0.741-0.032,1.483-0.069,2.225-0.117c0,0.954,0.001,1.906,0.001,2.857   C41.895,56.529,41.152,56.574,40.411,56.609z M40.409,52.672c0-0.957-0.001-1.915-0.001-2.871c0.742-0.027,1.482-0.061,2.224-0.098   c0.001,0.951,0.001,1.904,0.001,2.857C41.893,52.604,41.15,52.641,40.409,52.672z M40.408,48.734c0-0.957-0.002-1.916-0.002-2.871   c0.742-0.021,1.482-0.051,2.225-0.079c0,0.952,0,1.903,0.001,2.856C41.891,48.678,41.148,48.709,40.408,48.734z M40.406,44.797   c0-0.957,0-1.916-0.002-2.873c0.742-0.016,1.484-0.037,2.226-0.061c0,0.953,0.001,1.904,0.001,2.857   C41.891,44.75,41.148,44.775,40.406,44.797z M40.404,40.857c0-0.951,0-1.901,0-2.854c0.74-0.011,1.482-0.025,2.224-0.042   c0,0.946,0.001,1.894,0.001,2.841C41.889,40.824,41.146,40.842,40.404,40.857z M40.402,36.939c0-0.957,0-1.916,0-2.874   c0.742-0.007,1.482-0.014,2.225-0.023c0.001,0.953,0.001,1.906,0.001,2.859C41.887,36.917,41.146,36.93,40.402,36.939z    M40.402,33.001C40.4,32.043,40.4,31.086,40.4,30.128c0.742,0,1.481-0.003,2.225-0.004c0.001,0.953,0.001,1.906,0.002,2.858   C41.885,32.991,41.143,32.997,40.402,33.001z M39.355,33.008c-0.742,0.004-1.482,0.007-2.225,0.009c0-0.961,0-1.922,0-2.884   c0.741,0,1.482-0.001,2.225-0.002C39.355,31.09,39.355,32.049,39.355,33.008z M36.085,33.02c-0.743,0.001-1.486,0.001-2.229,0   c0-0.961,0-1.923,0-2.885c0.742,0,1.486,0,2.229,0C36.085,31.096,36.085,32.058,36.085,33.02z M32.81,33.018   c-0.742-0.002-1.483-0.005-2.225-0.009c0-0.959,0-1.918,0-2.877c0.742,0,1.483,0.001,2.225,0.002   C32.81,31.095,32.81,32.056,32.81,33.018z M29.539,33.001c-0.742-0.005-1.483-0.011-2.225-0.019c0-0.953,0-1.905,0.001-2.858   c0.742,0.001,1.483,0.004,2.224,0.004C29.539,31.086,29.539,32.044,29.539,33.001z M29.539,34.068c0,0.957-0.001,1.915-0.001,2.872   c-0.741-0.01-1.483-0.021-2.224-0.035c0-0.953,0-1.906,0-2.859C28.055,34.053,28.796,34.06,29.539,34.068z M26.268,36.881   c-0.741-0.018-1.482-0.035-2.223-0.057c0-0.943,0-1.887,0-2.831c0.741,0.013,1.482,0.025,2.223,0.036   C26.268,34.98,26.268,35.93,26.268,36.881z M26.267,37.938c0,0.944,0,1.89,0,2.832c-0.741-0.024-1.482-0.053-2.223-0.084   c0-0.938,0-1.873,0-2.811C24.784,37.898,25.526,37.92,26.267,37.938z M26.266,41.828c0,0.949-0.001,1.898-0.001,2.85   c-0.74-0.033-1.481-0.068-2.222-0.111c0-0.942,0-1.887,0-2.83C24.784,41.77,25.525,41.801,26.266,41.828z M26.265,45.734   c0,0.951-0.001,1.9-0.001,2.852c-0.74-0.04-1.481-0.087-2.221-0.139c0-0.943,0-1.887,0-2.831   C24.783,45.661,25.523,45.7,26.265,45.734z M26.263,49.645c0,0.949,0,1.899,0,2.851c-0.741-0.052-1.481-0.104-2.22-0.168   c0-0.942,0-1.886,0-2.829C24.782,49.551,25.522,49.602,26.263,49.645z M26.262,53.553c0,0.949,0,1.899-0.001,2.852   c-0.741-0.059-1.48-0.123-2.219-0.195c0-0.943,0-1.889,0-2.83C24.781,53.443,25.521,53.501,26.262,53.553z M26.26,57.46   c0,0.944,0,1.888-0.001,2.832c-0.74-0.065-1.479-0.14-2.218-0.224c0-0.938,0-1.875,0-2.812C24.781,57.333,25.52,57.4,26.26,57.46z    M26.259,61.35c0,0.951,0,1.9,0,2.851c-0.741-0.073-1.48-0.158-2.219-0.253c0-0.942,0-1.887,0-2.828   C24.779,61.205,25.519,61.279,26.259,61.35z M27.304,61.441c0.741,0.06,1.483,0.111,2.224,0.154c0,0.955,0,1.912,0,2.868   c-0.742-0.045-1.484-0.103-2.225-0.166C27.304,63.348,27.304,62.395,27.304,61.441z M29.527,65.531c0,0.957,0,1.916,0,2.873   c-0.742-0.053-1.484-0.114-2.225-0.188c0-0.951,0.001-1.904,0.001-2.857C28.044,65.428,28.785,65.484,29.527,65.531z    M30.575,65.594c0.743,0.039,1.486,0.067,2.229,0.086c0,0.961,0,1.922,0,2.885c-0.743-0.021-1.487-0.053-2.229-0.094   C30.575,67.51,30.575,66.553,30.575,65.594z M33.853,65.7c0.745,0.009,1.49,0.009,2.235,0c0,0.961,0,1.924,0,2.885   c-0.745,0.013-1.491,0.013-2.235,0C33.853,67.623,33.853,66.661,33.853,65.7z M37.139,65.68c0.741-0.019,1.485-0.049,2.229-0.086   c0,0.959,0,1.92,0.001,2.877c-0.743,0.041-1.485,0.072-2.229,0.094C37.139,67.602,37.139,66.641,37.139,65.68z M40.413,65.531   c0.743-0.047,1.483-0.104,2.226-0.172c0,0.953,0,1.906,0,2.857c-0.74,0.073-1.481,0.135-2.224,0.188   C40.414,67.445,40.414,66.488,40.413,65.531z M40.413,64.465c-0.001-0.956-0.001-1.912-0.001-2.869   c0.742-0.043,1.484-0.095,2.225-0.154c0,0.953,0,1.906,0.002,2.857C41.896,64.363,41.154,64.42,40.413,64.465z M43.684,61.35   c0.739-0.066,1.479-0.145,2.217-0.229c0,0.942,0,1.887,0,2.83c-0.736,0.092-1.478,0.177-2.217,0.252   C43.684,63.25,43.684,62.301,43.684,61.35z M43.684,60.292c-0.002-0.944-0.002-1.888-0.002-2.832   c0.739-0.06,1.48-0.127,2.219-0.202c0,0.938,0,1.873,0,2.811C45.162,60.152,44.423,60.227,43.684,60.292z M43.682,56.402   c0-0.95-0.002-1.9-0.002-2.85c0.74-0.052,1.48-0.109,2.219-0.176c0.002,0.943,0.002,1.887,0.002,2.83   C45.162,56.279,44.421,56.346,43.682,56.402z M43.68,52.494c0-0.95,0-1.9-0.002-2.852c0.742-0.041,1.482-0.093,2.221-0.146   c0,0.942,0,1.887,0,2.829C45.16,52.391,44.42,52.443,43.68,52.494z M43.678,48.586c0-0.949,0-1.898,0-2.852   c0.74-0.034,1.481-0.073,2.221-0.117c0,0.943,0,1.887,0,2.83C45.159,48.499,44.418,48.546,43.678,48.586z M43.677,44.678   c0-0.949,0-1.9-0.001-2.85c0.741-0.027,1.481-0.059,2.221-0.092c0,0.943,0.002,1.888,0.002,2.83   C45.159,44.607,44.418,44.645,43.677,44.678z M43.676,40.77c-0.001-0.942-0.001-1.888-0.001-2.832   c0.742-0.018,1.482-0.039,2.222-0.063c0,0.938,0,1.873,0,2.811C45.157,40.717,44.417,40.744,43.676,40.77z M43.674,36.881   c0-0.951-0.001-1.901-0.001-2.851c0.741-0.01,1.483-0.022,2.224-0.035c0,0.943,0,1.886,0,2.831   C45.157,36.846,44.415,36.863,43.674,36.881z M26.269,30.122c0,0.95,0,1.9-0.001,2.85c-0.741-0.008-1.482-0.018-2.223-0.028   c0-0.943,0-1.887,0-2.83C24.786,30.117,25.528,30.119,26.269,30.122z M24.04,64.999c0.738,0.097,1.478,0.183,2.218,0.258   c0,0.95,0,1.901,0,2.853c-0.741-0.084-1.48-0.178-2.218-0.28C24.04,66.887,24.04,65.941,24.04,64.999z M43.684,68.109   c0-0.95,0-1.899,0-2.853c0.739-0.075,1.479-0.163,2.217-0.259c0.002,0.941,0.002,1.889,0.002,2.83   C45.163,67.934,44.425,68.025,43.684,68.109z"/>
</g>
<path id="highlight_1__ygc0_" opacity="0.17" fill="#FFFFFF" enable-background="new    " d="M17.5,15.184h5.497  c0,0,6.847-0.943,11.974-0.943c5.128,0,12.009,0.943,12.009,0.943h5.496v41.951c0,0-12.076-0.521-18.623-2.548  C27.307,52.561,17.5,44.798,17.5,44.798V15.184z"/>
</svg></g><g><svg xmlns="http://www.w3.org/2000/svg" xmlns:xlink="http://www.w3.org/1999/xlink" version="1.1" id="Ebene_1" x="331.9375" y="-77.58877563476562" width="94.25" height="92.5" viewBox="0 0 70 70" enable-background="new 0 0 70 70" xml:space="preserve" preserveAspectRatio="none">
<g id="Ebene_1_2__ygc1_">
	<g id="Ebene_1_1__ygc1_">
		<g id="Keyboard_ygc1_">
			<g>
				
					<linearGradient id="SVGID_1__ygc1_" gradientUnits="userSpaceOnUse" x1="224.2734" y1="831.9775" x2="224.2734" y2="808.6547" gradientTransform="matrix(1 0 0 1 -195.2002 -770.8008)">
					<stop offset="0.0319" style="stop-color:#808080"/>
					<stop offset="0.1229" style="stop-color:#939393"/>
					<stop offset="0.2702" style="stop-color:#ABABAB"/>
					<stop offset="0.4266" style="stop-color:#BCBCBC"/>
					<stop offset="0.5968" style="stop-color:#C6C6C6"/>
					<stop offset="0.8061" style="stop-color:#C9C9C9"/>
				</linearGradient>
				<path fill="url(#SVGID_1__ygc1_)" d="M54.645,59.48c0.195,0.459-0.053,0.836-0.553,0.836H3.891c-0.5,0-0.604-0.272-0.232-0.605      l8.023-7.191c0.373-0.334,1.086-0.605,1.586-0.605h37.255c0.498,0,1.065,0.377,1.265,0.836L54.645,59.48z"/>
				
					<path fill="none" stroke="#8D8D8D" stroke-width="0.25" stroke-linecap="round" stroke-linejoin="round" stroke-miterlimit="10" d="      M54.645,59.48c0.195,0.459-0.053,0.836-0.553,0.836H3.891c-0.5,0-0.604-0.272-0.232-0.605l8.023-7.191      c0.373-0.334,1.086-0.605,1.586-0.605h37.255c0.498,0,1.065,0.377,1.265,0.836L54.645,59.48z"/>
			</g>
			<g>
				<g>
					<g>
						<path fill="#717171" d="M35.428,58.134c0,0.25-0.205,0.454-0.455,0.454H7.335c-0.25,0-0.304-0.139-0.119-0.307l5.638-5.154        c0.184-0.17,0.539-0.309,0.789-0.309h21.332c0.25,0,0.454,0.205,0.454,0.455L35.428,58.134L35.428,58.134z"/>
					</g>
					<g>
						<path fill="#717171" d="M44.049,58.16c0.086,0.236,0.359,0.428,0.609,0.428h7.465c0.25,0,0.375-0.188,0.279-0.42l-2.049-4.93        c-0.098-0.229-0.379-0.42-0.629-0.42h-7.17c-0.25,0-0.386,0.191-0.301,0.428L44.049,58.16z"/>
					</g>
					<g>
						<path fill="#717171" d="M36.201,58.134c0,0.25,0.205,0.454,0.455,0.454h6.135c0.25,0,0.382-0.189,0.293-0.426l-0.156-0.409        c-0.089-0.233-0.365-0.421-0.615-0.416l-1.045,0.021c-0.25,0.004-0.509-0.189-0.574-0.432l-0.021-0.082        c-0.065-0.242-0.321-0.439-0.571-0.439h-1.316c-0.25,0-0.444,0.205-0.432,0.453l0.002,0.059        c0.016,0.25-0.181,0.455-0.431,0.459l-1.269,0.021c-0.25,0.006-0.454,0.211-0.454,0.461L36.201,58.134L36.201,58.134z"/>
					</g>
					<g>
						<path fill="#717171" d="M36.201,54.566c0,0.25,0.205,0.455,0.455,0.455h4.845c0.25,0,0.396-0.195,0.323-0.437l-0.402-1.333        c-0.07-0.238-0.335-0.438-0.585-0.438h-4.181c-0.25,0-0.455,0.205-0.455,0.455V54.566z"/>
					</g>
				</g>
			</g>
		</g>
		<g id="Display_Foot_ygc1_">
			<g>
				
					<linearGradient id="SVGID_2__ygc1_" gradientUnits="userSpaceOnUse" x1="538.5127" y1="-1411.0938" x2="514.7744" y2="-1411.0938" gradientTransform="matrix(1 0 0 -1 -488 -1361.502)">
					<stop offset="0" style="stop-color:#4D4D4D"/>
					<stop offset="1" style="stop-color:#999999"/>
				</linearGradient>
				<path fill="url(#SVGID_2__ygc1_)" d="M50.359,48.076c0,0.965-6.758,1.404-12.371,1.404c-3.889,0-10.914-0.348-11.367-1.267      c0,0.446,0,1.502,0,1.661c0,0.725,4.803,1.234,11.357,1.234c6.554,0,12.381-0.643,12.381-1.361      C50.359,49.591,50.359,48.539,50.359,48.076z"/>
				<path fill="#808080" d="M38.49,46.869c6.556,0,11.869,0.584,11.869,1.307c0,0.721-5.313,1.42-11.869,1.42      c-6.701,0-11.869-0.697-11.869-1.42S31.936,46.869,38.49,46.869z"/>
			</g>
			
				<linearGradient id="SVGID_3__ygc1_" gradientUnits="userSpaceOnUse" x1="529.0771" y1="-1405.124" x2="524.0811" y2="-1405.124" gradientTransform="matrix(1 0 0 -1 -488 -1361.502)">
				<stop offset="0" style="stop-color:#999999"/>
				<stop offset="0.0417" style="stop-color:#8D8D8D"/>
				<stop offset="0.1617" style="stop-color:#717171"/>
				<stop offset="0.2821" style="stop-color:#5D5D5D"/>
				<stop offset="0.4021" style="stop-color:#515151"/>
				<stop offset="0.5212" style="stop-color:#4D4D4D"/>
				<stop offset="0.6202" style="stop-color:#565656"/>
				<stop offset="0.7817" style="stop-color:#6E6E6E"/>
				<stop offset="0.9844" style="stop-color:#969696"/>
				<stop offset="1" style="stop-color:#999999"/>
			</linearGradient>
			<path fill="url(#SVGID_3__ygc1_)" d="M41.045,48.459c0,0-1.477,0.096-2.498,0.096s-2.499-0.096-2.499-0.096v-9.768h4.997V48.459z"/>
		</g>
		<g id="Display_ygc1_">
			<g>
				
					<radialGradient id="SVGID_4__ygc1_" cx="419.1797" cy="-1378.9521" r="24.0778" gradientTransform="matrix(1.15 0 0 -1 -453.9686 -1361.502)" gradientUnits="userSpaceOnUse">
					<stop offset="0" style="stop-color:#F2F2F2"/>
					<stop offset="1" style="stop-color:#666666"/>
				</radialGradient>
				<path fill="url(#SVGID_4__ygc1_)" d="M12.764,9.684c0-1.1,0.9-2,2-2H63.01c1.1,0,2,0.9,2,2v30.073c0,1.101-0.9,2-2,2H14.764      c-1.1,0-2-0.899-2-2V9.684z"/>
				
					<path fill="none" stroke="#666666" stroke-width="0.2436" stroke-linecap="round" stroke-linejoin="round" stroke-miterlimit="10" d="      M12.764,9.684c0-1.1,0.9-2,2-2H63.01c1.1,0,2,0.9,2,2v30.073c0,1.101-0.9,2-2,2H14.764c-1.1,0-2-0.899-2-2V9.684z"/>
			</g>
			<g>
				
					<radialGradient id="SVGID_5__ygc1_" cx="405.4619" cy="-1370.8037" r="53.3339" fx="447.4194" fy="-1377.9913" gradientTransform="matrix(1.1935 0 0 -1 -444.2062 -1361.502)" gradientUnits="userSpaceOnUse">
					<stop offset="0" style="stop-color:#4D4D4D"/>
					<stop offset="1" style="stop-color:#999999"/>
				</radialGradient>
				<path fill="url(#SVGID_5__ygc1_)" d="M13.786,10.705c0-1.1,0.9-2,2-2h46.429c1.1,0,2,0.9,2,2V38.51c0,1.1-0.9,2-2,2H15.786      c-1.1,0-2-0.9-2-2V10.705z"/>
			</g>
			<g>
				
					<radialGradient id="SVGID_6__ygc1_" cx="406.25" cy="-1370.8877" r="34.1874" gradientTransform="matrix(1.1923 0 0 -1 -444.4653 -1361.502)" gradientUnits="userSpaceOnUse">
					<stop offset="0" style="stop-color:#9CD7FF"/>
					<stop offset="1" style="stop-color:#3C89C9"/>
				</radialGradient>
				<path fill="url(#SVGID_6__ygc1_)" d="M14.354,11.16c0-1.1,0.9-2,2-2h45.294c1.1,0,2,0.9,2,2v26.895c0,1.1-0.9,2-2,2H16.354      c-1.1,0-2-0.9-2-2V11.16z"/>
			</g>
			<path opacity="0.24" fill="#F2F2F2" d="M14.354,32.498V11.16c0-1.1,0.9-2,2-2h45.294c1.1,0,2,0.9,2,2v13.539l-23.164,4.94     c-1.064,0.273-2.836,0.547-3.935,0.609L14.354,32.498z"/>
		</g>
	</g>
	<g id="Mouse_ygc1_">
		<g id="XMLID_1__ygc1_">
			<g>
				<path fill="#C9C9C9" d="M62.088,54.158c-0.003-0.002-0.005-0.002-0.007,0c-0.188-0.061-0.429-0.254-0.702-0.482      C61.646,53.83,61.889,53.998,62.088,54.158z"/>
				
					<radialGradient id="SVGID_7__ygc1_" cx="454.1748" cy="1266.7139" r="6.3766" gradientTransform="matrix(1 0 0 1 -390.4004 -1211.6016)" gradientUnits="userSpaceOnUse">
					<stop offset="0.1939" style="stop-color:#C9C9C9"/>
					<stop offset="0.3299" style="stop-color:#C6C6C6"/>
					<stop offset="0.4405" style="stop-color:#BCBCBC"/>
					<stop offset="0.5421" style="stop-color:#ABABAB"/>
					<stop offset="0.6378" style="stop-color:#939393"/>
					<stop offset="0.697" style="stop-color:#808080"/>
				</radialGradient>
				<path fill="url(#SVGID_7__ygc1_)" d="M62.081,54.158c0.005,0.002,0.007,0.002,0.009,0.002c0.002,0.004,0.006,0.004,0.006,0.004      c0.084,0.023,0.153,0.021,0.213-0.021c0.017-0.008,0.026-0.021,0.037-0.041c0.604-0.119,1.329-0.154,2.197-0.086      c2.032,1.545,3.77,4.625,1.18,5.801c-2.048,0.929-3.543,0.783-4.722-0.485c-0.624-0.675-1.239-1.47-1.729-2.265      C59.537,55.932,60.166,54.623,62.081,54.158z"/>
				
					<radialGradient id="SVGID_8__ygc1_" cx="606.8809" cy="1434.1973" r="3.8245" gradientTransform="matrix(0.9761 0.2173 -0.1478 0.6641 -318.8444 -1029.3551)" gradientUnits="userSpaceOnUse">
					<stop offset="0.1939" style="stop-color:#C9C9C9"/>
					<stop offset="0.3739" style="stop-color:#C6C6C6"/>
					<stop offset="0.5203" style="stop-color:#BCBCBC"/>
					<stop offset="0.6549" style="stop-color:#ABABAB"/>
					<stop offset="0.7816" style="stop-color:#939494"/>
					<stop offset="0.8364" style="stop-color:#868787"/>
				</radialGradient>
				<path fill="url(#SVGID_8__ygc1_)" d="M59.271,57.066c-0.893-1.438-1.355-2.869-0.664-3.533c0.244-0.236,0.539-0.422,0.863-0.559      c0.6,0.051,1.307,0.346,1.9,0.691c0.002,0,0.005,0.004,0.007,0.006c0.272,0.229,0.519,0.426,0.702,0.482      C60.166,54.623,59.537,55.932,59.271,57.066z"/>
				
					<radialGradient id="SVGID_9__ygc1_" cx="452.0352" cy="1266.8896" r="3.928" gradientTransform="matrix(1 0 0 1 -390.4004 -1211.6016)" gradientUnits="userSpaceOnUse">
					<stop offset="0.1939" style="stop-color:#C9C9C9"/>
					<stop offset="0.3496" style="stop-color:#C6C6C6"/>
					<stop offset="0.4761" style="stop-color:#BCBCBC"/>
					<stop offset="0.5925" style="stop-color:#ABABAB"/>
					<stop offset="0.702" style="stop-color:#939393"/>
					<stop offset="0.7697" style="stop-color:#808080"/>
				</radialGradient>
				<path fill="url(#SVGID_9__ygc1_)" d="M59.471,52.977c1.353-0.564,3.287-0.266,4.963,0.955c0.035,0.025,0.073,0.055,0.109,0.084      c-0.867-0.068-1.818-0.033-2.427,0.086c-0.109-0.105-0.763-0.449-0.744-0.434C60.775,53.32,60.068,53.025,59.471,52.977z"/>
			</g>
			<g>
				<path fill="none" stroke="#717171" stroke-width="0.1136" stroke-linecap="round" stroke-miterlimit="10" d="M59.471,52.977      c1.353-0.564,3.287-0.266,4.963,0.955c0.035,0.025,0.073,0.055,0.109,0.084c2.032,1.545,3.77,4.627,1.18,5.801      c-2.048,0.93-3.543,0.785-4.722-0.484c-0.624-0.676-1.239-1.471-1.729-2.264c-0.892-1.438-1.354-2.871-0.664-3.533      C58.852,53.297,59.146,53.111,59.471,52.977z"/>
				<path fill="none" stroke="#717171" stroke-width="0.1136" stroke-linecap="round" stroke-miterlimit="10" d="M62.088,54.158      c0.083-0.021,0.168-0.041,0.258-0.057c0.604-0.119,1.329-0.154,2.197-0.086"/>
				<path fill="none" stroke="#717171" stroke-width="0.1136" stroke-linecap="round" stroke-miterlimit="10" d="M59.27,57.078      c0-0.002,0.002-0.008,0.002-0.012c0.269-1.135,0.896-2.441,2.813-2.908"/>
				<path fill="none" stroke="#717171" stroke-width="0.1136" stroke-linecap="round" stroke-miterlimit="10" d="M61.372,53.668      c-0.597-0.35-1.306-0.643-1.901-0.693"/>
				<path fill="none" stroke="#717171" stroke-width="0.1136" stroke-linecap="round" stroke-miterlimit="10" d="M62.09,54.16      c0-0.002,0-0.002-0.002-0.002c-0.199-0.16-0.441-0.328-0.709-0.482"/>
				<path fill="#4D4D4D" d="M61.57,53.498c0.354,0.264,0.438,0.48,0.548,0.604c-0.091,0.018-0.173,0.033-0.259,0.059      c-0.355-0.393-0.996-0.666-0.955-0.727C60.999,53.291,61.374,53.354,61.57,53.498z"/>
			</g>
		</g>
	</g>
</g>
</svg></g><rect fill="rgb(0,0,0)" stroke="rgb(0,0,0)" fill-opacity="0" stroke-opacity="0" stroke-width="5" stroke-linecap="butt" stroke-linejoin="miter" stroke-miterlimit="10" ry="10" height="1e-06" x="323.375" width="132.375" rx="10" y="-128.151"/><rect fill="rgb(255,255,255)" stroke="rgb(255,255,255)" stroke-opacity="1" stroke-width="1" stroke-linecap="butt" stroke-linejoin="miter" stroke-miterlimit="10" fill-opacity="1" height="1e-06" x="60.125" width="31.75" y="-85.1513"/><rect fill="rgb(255,255,255)" stroke="rgb(255,255,255)" stroke-opacity="1" stroke-width="1" stroke-linecap="butt" stroke-linejoin="miter" stroke-miterlimit="10" fill-opacity="1" height="30" x="-165.906" width="30" y="-155"/><g transform="translate(-294.40625 -119.9999995)"><text font-family="'Georgia'" font-size="19px" font-style="normal" font-weight="normal" text-decoration="none" text-anchor="middle" fill="rgb(0,0,0)" fill-opacity="1" dy="0.8947368421052632em" transform="translate(143.5 0)">Servidor da Qlik Domínio PRODERJ</text></g><g><svg xmlns="http://www.w3.org/2000/svg" viewBox="0 0 384 512" width="45" height="43.22372817993164" fill="rgb(51,102,153)" fill-opacity="1" x="186.9375" y="-28.3125"><path d="M224 136V0H24C10.7 0 0 10.7 0 24v464c0 13.3 10.7 24 24 24h336c13.3 0 24-10.7 24-24V160H248c-13.2 0-24-10.8-24-24zm160-14.1v6.1H256V0h6.1c6.4 0 12.5 2.5 17 7l97.9 98c4.5 4.5 7 10.6 7 16.9z"/></svg></g><rect fill="rgb(255,255,255)" stroke="rgb(255,255,255)" stroke-opacity="1" stroke-width="1" stroke-linecap="butt" stroke-linejoin="miter" stroke-miterlimit="10" fill-opacity="1" height="30" x="150.094" width="30" y="-146.75"/><g><svg xmlns="http://www.w3.org/2000/svg" height="86.35548400878906" viewBox="0 0 496 495" width="92.95155334472656" x="50.61797332763672" y="-290.177734375" preserveAspectRatio="none"><g fill="#57a4ff"><path d="m374.488281 74.246094c9.496094-2.449219 18.796875-5.597656 27.832031-9.414063-41.949218-35.371093-94.800781-55.207031-149.664062-56.167969 47.191406 1.472657 89.9375 26.136719 121.832031 65.582032zm0 0"/><path d="m329.054688 83.167969c15.3125-2.046875 30.484374-5.027344 45.433593-8.921875-31.894531-39.445313-74.640625-64.109375-121.832031-65.597656h-.175781c30.128906 2.597656 57.121093 30.75 76.574219 74.519531zm0 0"/><path d="m252.398438 8.640625c-.714844-.105469-1.4375-.132813-2.160157-.082031-.742187-.0625-1.492187-.089844-2.238281-.078125 1.511719 0 2.984375.144531 4.480469.175781zm0 0"/><path d="m374.488281 422.710938c9.496094 2.453124 18.796875 5.601562 27.832031 9.417968 30.578126-25.65625 54.28125-58.53125 68.960938-95.648437h-52.160156c-9.183594 31.351562-24.339844 60.632812-44.632813 86.230469zm0 0"/><path d="m252.398438 8.640625c-.503907-.066406-1.011719-.09375-1.519532-.082031-.957031-.078125-1.917968-.078125-2.878906-.078125.746094-.011719 1.496094.015625 2.238281.078125.722657-.050782 1.445313-.023438 2.160157.082031zm0 0"/><path d="m248 488.480469c.746094.011719 1.496094-.015625 2.238281-.082031.722657.054687 1.445313.027343 2.160157-.078126h.082031c-1.503907.015626-2.976563.160157-4.480469.160157zm0 0"/><path d="m329.054688 413.792969c-26.863282-3.613281-53.945313-5.386719-81.054688-5.3125v80c1.503906 0 2.976562-.144531 4.480469-.175781 30.128906-2.59375 57.121093-30.738282 76.574219-74.511719zm0 0"/><path d="m248 488.480469c.960938 0 1.921875 0 2.878906-.082031.507813.015624 1.015625-.011719 1.519532-.078126-.714844.105469-1.4375.132813-2.160157.078126-.742187.066406-1.492187.09375-2.238281.082031zm0 0"/><path d="m166.945312 413.792969c19.429688 43.773437 46.445313 71.917969 76.574219 74.511719 1.503907 0 2.976563.175781 4.480469.175781v-80c-27.109375-.074219-54.191406 1.699219-81.054688 5.3125zm0 0"/><path d="m329.054688 83.167969c-19.453126-43.769531-46.445313-71.921875-76.574219-74.511719-1.496094-.03125-2.96875-.175781-4.480469-.175781v80c27.109375.074219 54.191406-1.699219 81.054688-5.3125zm0 0"/><path d="m243.601562 488.320312c.714844.105469 1.4375.132813 2.160157.078126.742187.066406 1.492187.09375 2.238281.082031-1.503906 0-2.976562-.144531-4.480469-.175781zm0 0"/><path d="m374.488281 422.710938c-14.949219-3.894532-30.121093-6.871094-45.433593-8.917969-19.429688 43.773437-46.445313 71.917969-76.574219 74.511719h.167969c47.191406-1.480469 89.945312-26.136719 121.839843-65.59375zm0 0"/><path d="m252.648438 488.304688c54.863281-.96875 107.71875-20.804688 149.671874-56.175782-9.035156-3.816406-18.335937-6.964844-27.832031-9.417968-31.894531 39.457031-74.648437 64.113281-121.839843 65.59375zm0 0"/><path d="m329.054688 83.167969c10.691406 24.78125 18.445312 50.726562 23.105468 77.3125h66.960938c-9.179688-31.351563-24.335938-60.632813-44.632813-86.234375-14.949219 3.894531-30.121093 6.875-45.433593 8.921875zm0 0"/><path d="m248 88.480469v72h104.160156c-4.660156-26.585938-12.414062-52.53125-23.105468-77.3125-26.863282 3.613281-53.945313 5.386719-81.054688 5.3125zm0 0"/><path d="m402.320312 64.832031c-9.035156 3.816407-18.335937 6.964844-27.832031 9.414063 20.296875 25.601562 35.453125 54.882812 44.632813 86.234375h52.160156c-14.679688-37.121094-38.382812-69.992188-68.960938-95.648438zm0 0"/><path d="m166.945312 83.167969c-10.691406 24.78125-18.445312 50.726562-23.105468 77.3125h104.160156v-72c-27.109375.074219-54.191406-1.699219-81.054688-5.3125zm0 0"/><path d="m166.945312 83.167969c26.863282 3.613281 53.945313 5.386719 81.054688 5.3125v-80c-1.511719 0-2.984375.144531-4.480469.175781-30.128906 2.589844-57.121093 30.742188-76.574219 74.511719zm0 0"/><path d="m248 8.480469c-.746094-.011719-1.496094.015625-2.238281.078125-.722657-.050782-1.445313-.023438-2.160157.082031h-.082031c1.496094-.015625 2.96875-.160156 4.480469-.160156zm0 0"/><path d="m248 8.480469c-.960938 0-1.921875 0-2.878906.078125-.507813-.011719-1.015625.015625-1.519532.082031.714844-.105469 1.4375-.132813 2.160157-.082031.742187-.0625 1.492187-.089844 2.238281-.078125zm0 0"/><path d="m121.511719 74.246094c14.949219 3.894531 30.121093 6.875 45.433593 8.921875 19.429688-43.769531 46.445313-71.921875 76.574219-74.511719h-.175781c-47.191406 1.480469-89.9375 26.144531-121.832031 65.589844zm0 0"/><path d="m93.679688 64.832031c-30.578126 25.65625-54.28125 58.527344-68.960938 95.648438h52.160156c9.179688-31.351563 24.335938-60.632813 44.632813-86.234375-9.496094-2.449219-18.796875-5.597656-27.832031-9.414063zm0 0"/><path d="m121.511719 74.246094c-20.296875 25.601562-35.453125 54.882812-44.632813 86.234375h66.960938c4.660156-26.585938 12.414062-52.53125 23.105468-77.3125-15.3125-2.046875-30.484374-5.027344-45.433593-8.921875zm0 0"/><path d="m243.34375 8.664062c-54.863281.960938-107.714844 20.796876-149.664062 56.167969 9.035156 3.816407 18.335937 6.964844 27.832031 9.414063 31.894531-39.445313 74.640625-64.109375 121.832031-65.582032zm0 0"/><path d="m243.601562 488.320312c.503907.066407 1.011719.09375 1.519532.078126.957031.082031 1.917968.082031 2.878906.082031-.746094.011719-1.496094-.015625-2.238281-.082031-.722657.054687-1.445313.027343-2.160157-.078126zm0 0"/><path d="m76.878906 336.480469h-52.160156c14.679688 37.117187 38.382812 69.992187 68.960938 95.648437 9.035156-3.816406 18.335937-6.964844 27.832031-9.417968-20.292969-25.597657-35.449219-54.878907-44.632813-86.230469zm0 0"/><path d="m248 408.480469v-72h-104.160156c4.660156 26.582031 12.414062 52.53125 23.105468 77.3125 26.863282-3.613281 53.945313-5.386719 81.054688-5.3125zm0 0"/><path d="m121.511719 422.710938c-9.496094 2.453124-18.796875 5.601562-27.832031 9.417968 41.953124 35.371094 94.808593 55.207032 149.671874 56.175782-47.191406-1.480469-89.945312-26.136719-121.839843-65.59375zm0 0"/><path d="m329.054688 413.792969c10.691406-24.78125 18.445312-50.730469 23.105468-77.3125h-104.160156v72c27.109375-.074219 54.191406 1.699219 81.054688 5.3125zm0 0"/><path d="m166.945312 413.792969c-15.3125 2.046875-30.484374 5.023437-45.433593 8.917969 31.894531 39.457031 74.648437 64.113281 121.839843 65.601562h.167969c-30.128906-2.601562-57.121093-30.746094-76.574219-74.519531zm0 0"/><path d="m166.945312 413.792969c-10.691406-24.78125-18.445312-50.730469-23.105468-77.3125h-66.960938c9.183594 31.351562 24.339844 60.632812 44.632813 86.230469 14.949219-3.894532 30.121093-6.871094 45.433593-8.917969zm0 0"/><path d="m374.488281 422.710938c20.292969-25.597657 35.449219-54.878907 44.632813-86.230469h-66.960938c-4.660156 26.582031-12.414062 52.53125-23.105468 77.3125 15.3125 2.046875 30.484374 5.023437 45.433593 8.917969zm0 0"/></g><path d="m8 168.480469h480c4.417969 0 8-3.582031 8-8s-3.582031-8-8-8h-11.496094c-37.5625-90.511719-125.21875-150.128907-223.199218-151.800781h-.59375c-.621094-.0625-1.246094-.089844-1.871094-.085938-1.835938-.125-3.675782-.125-5.511719 0-.753906-.019531-1.507813.015625-2.257813.101562h-.09375c-.097656 0-.191406 0-.289062 0-97.972656 1.671876-185.628906 61.28125-223.191406 151.785157h-11.496094c-4.417969 0-8 3.582031-8 8s3.582031 8 8 8zm309.023438-91.824219c-20.261719 2.289062-40.632813 3.542969-61.023438 3.75v-63.0625c22.65625 4.144531 44.152344 25.710938 61.023438 59.3125zm-77.023438-59.3125v63.0625c-20.382812-.207031-40.738281-1.460938-60.992188-3.75 16.792969-33.335938 38.207032-54.863281 60.992188-59.3125zm0 79.0625v56.074219h-86.398438c4.167969-20.730469 10.296876-41.019531 18.300782-60.59375 22.597656 2.78125 45.332031 4.289062 68.097656 4.519531zm16 0c22.761719-.230469 45.488281-1.742188 68.078125-4.527344 8.007813 19.578125 14.144531 39.867188 18.320313 60.601563h-86.398438zm84.34375-6.847656c11.046875-1.78125 21.457031-3.878906 31.097656-6.277344 15.839844 20.941406 28.183594 44.3125 36.558594 69.199219h-49.3125c-4.171875-21.492188-10.3125-42.554688-18.34375-62.921875zm-6.601562-15.109375c-7.625-16.742188-17.730469-32.238281-29.972657-45.96875 21.390625 9.65625 40.539063 23.652343 56.230469 41.101562-8.246094 1.84375-16.996094 3.464844-26.257812 4.867188zm-171.476563 0c-9.25-1.394531-18.003906-3.015625-26.265625-4.867188 15.707031-17.492187 34.886719-31.519531 56.320312-41.183593-12.289062 13.742187-22.421874 29.269531-30.054687 46.050781zm-6.601563 15.109375c-8.039062 20.367187-14.179687 41.429687-18.351562 62.921875h-49.3125c8.378906-24.890625 20.730469-48.257813 36.574219-69.199219 9.625 2.398438 20.042969 4.496094 31.089843 6.277344zm303.390626 62.921875h-34.183594c-8.339844-26.398438-20.785156-51.320313-36.871094-73.847657 4.628906-1.472656 8.996094-3.023437 13.105469-4.65625 24.675781 21.75 44.433593 48.511719 57.949219 78.503907zm-72.4375-90.207031c-2.949219 1.007812-6.023438 1.972656-9.226563 2.894531-6.871094-8.128907-14.359375-15.714844-22.398437-22.695313 11.058593 5.730469 21.636718 12.351563 31.625 19.800782zm-268 2.902343c-3.203126-.929687-6.277344-1.894531-9.234376-2.902343 10.003907-7.453126 20.59375-14.078126 31.671876-19.808594-8.054688 6.980468-15.554688 14.570312-22.4375 22.710937zm-23.695313 8.800781c4.09375 1.632813 8.464844 3.183594 13.109375 4.65625-16.101562 22.523438-28.554688 47.445313-36.902344 73.847657h-34.183594c13.523438-29.992188 33.289063-56.757813 57.976563-78.503907zm0 0" fill="#004fac"/><path d="m488 328.480469h-480c-4.417969 0-8 3.582031-8 8s3.582031 8 8 8h11.496094c37.5625 90.507812 125.21875 150.125 223.199218 151.800781h.296876.519531c.738281.070312 1.476562.097656 2.214843.078125.800782.046875 1.546876.054687 2.289063.054687 1.023437 0 1.96875 0 2.558594-.0625.789062.023438 1.574219-.011718 2.355469-.105468h.382812c97.96875-1.667969 185.625-61.269532 223.191406-151.765625h11.496094c4.417969 0 8-3.582031 8-8s-3.582031-8-8-8zm-309.023438 91.824219c20.261719-2.292969 40.632813-3.542969 61.023438-3.753907v63.066407c-22.65625-4.144532-44.152344-25.714844-61.023438-59.3125zm77.023438 59.3125v-63.066407c20.382812.210938 40.738281 1.460938 60.992188 3.753907-16.792969 33.335937-38.207032 54.863281-60.992188 59.3125zm0-79.066407v-56.070312h86.398438c-4.167969 20.730469-10.296876 41.019531-18.300782 60.589843-22.597656-2.777343-45.332031-4.289062-68.097656-4.519531zm-16 0c-22.761719.230469-45.488281 1.742188-68.078125 4.527344-8.007813-19.574219-14.144531-39.863281-18.320313-60.597656h86.398438zm-84.34375 6.847657c-11.046875 1.785156-21.457031 3.882812-31.097656 6.28125-15.839844-20.945313-28.183594-44.3125-36.558594-69.199219h49.328125c4.167969 21.492187 10.300781 42.550781 18.328125 62.917969zm6.601562 15.113281c7.621094 16.757812 17.726563 32.265625 29.972657 46.007812-21.390625-9.667969-40.542969-23.679687-56.230469-41.144531 8.246094-1.839844 16.996094-3.460938 26.257812-4.863281zm171.476563 0c9.25 1.390625 18.007813 3.011719 26.28125 4.863281-15.710937 17.496094-34.898437 31.523438-56.335937 41.183594 12.289062-13.742188 22.421874-29.265625 30.054687-46.046875zm6.601563-15.113281c8.039062-20.363282 14.179687-41.425782 18.351562-62.917969h49.3125c-8.378906 24.886719-20.730469 48.257812-36.574219 69.199219-9.625-2.398438-20.042969-4.496094-31.089843-6.28125zm-303.390626-62.917969h34.183594c8.339844 26.398437 20.785156 51.316406 36.871094 73.847656-4.632812 1.472656-9.003906 3.023437-13.105469 4.65625-24.675781-21.75-44.433593-48.515625-57.949219-78.503906zm72.4375 90.207031c2.949219-1.007812 6.023438-1.972656 9.226563-2.894531 6.871094 8.128906 14.359375 15.714843 22.398437 22.695312-11.058593-5.730469-21.636718-12.355469-31.625-19.800781zm268-2.902344c3.203126.925782 6.277344 1.894532 9.234376 2.902344-10.003907 7.453125-20.59375 14.078125-31.671876 19.808594 8.054688-6.980469 15.554688-14.574219 22.4375-22.710938zm23.695313-8.800781c-4.09375-1.632813-8.464844-3.183594-13.109375-4.65625 16.101562-22.527344 28.554688-47.449219 36.902344-73.847656h34.183594c-13.523438 29.992187-33.289063 56.753906-57.976563 78.503906zm0 0" fill="#004fac"/><path d="m160 304.480469c4.417969 0 8-3.582031 8-8v-40c.585938-12.605469-9.109375-23.324219-21.710938-24h-26.289062v-48c0-4.417969-3.582031-8-8-8s-8 3.582031-8 8v112c0 4.417969 3.582031 8 8 8s8-3.582031 8-8v-48h26.289062c3.09375 0 5.710938 3.664062 5.710938 8v40c0 4.417969 3.582031 8 8 8zm0 0" fill="#004fac"/><path d="m336 224.480469c-4.417969 0-8 3.582031-8 8v80c0 4.417969 3.582031 8 8 8s8-3.582031 8-8v-24h26.289062c12.601563-.675781 22.296876-11.394531 21.710938-24v-16c.585938-12.605469-9.109375-23.324219-21.710938-24zm40 24v16c0 4.335937-2.617188 8-5.710938 8h-26.289062v-32h26.289062c3.09375 0 5.710938 3.664062 5.710938 8zm0 0" fill="#004fac"/><path d="m208 304.480469c4.417969 0 8-3.582031 8-8v-64h16c4.417969 0 8-3.582031 8-8s-3.582031-8-8-8h-16v-24c0-4.417969-3.582031-8-8-8s-8 3.582031-8 8v24h-16c-4.417969 0-8 3.582031-8 8s3.582031 8 8 8h16v64c0 4.417969 3.582031 8 8 8zm0 0" fill="#004fac"/><path d="m288 304.480469c4.417969 0 8-3.582031 8-8v-64h16c4.417969 0 8-3.582031 8-8s-3.582031-8-8-8h-16v-24c0-4.417969-3.582031-8-8-8s-8 3.582031-8 8v24h-16c-4.417969 0-8 3.582031-8 8s3.582031 8 8 8h16v64c0 4.417969 3.582031 8 8 8zm0 0" fill="#004fac"/></svg></g><g><svg xmlns="http://www.w3.org/2000/svg" height="81.5625" viewBox="0 -4 464.00001 464" width="82.375" x="55.90625" y="52.91122817993164" preserveAspectRatio="none"><path d="m120 319.863281c0 8.839844 7.164062 16 16 16s16-7.160156 16-16" fill="#00aeef"/><path d="m152 415.863281c0 8.839844-7.164062 16-16 16s-16-7.160156-16-16c0-8.835937 7.164062-16 16-16s16 7.164063 16 16zm0 0" fill="#00aeef"/><path d="m464 223.863281c-.011719 49.902344-38.269531 91.464844-88 95.601563l-288 .398437c-23.34375.015625-45.734375-9.253906-62.238281-25.757812-16.507813-16.507813-25.7734378-38.898438-25.761719-62.242188 0-39.679687 26.238281-65.199219 62.320312-76.238281-4.199218-11.453125-6.339843-23.5625-6.320312-35.761719.019531-25.675781 15.375-48.859375 39.007812-58.898437 23.632813-10.039063 50.976563-4.992188 69.472657 12.820312 16.320312-53.75 72.375-84.828125 126.605469-70.195312 54.234374 14.636718 87.046874 69.691406 74.113281 124.355468.960937-.082031 1.839843-.082031 2.800781-.082031 53.019531 0 96 42.980469 96 96zm0 0" fill="#00aeef"/><path d="m376 263.863281h-288v-80h288zm0 0" fill="#898890"/><path d="m152 223.863281c0 8.839844-7.164062 16-16 16s-16-7.160156-16-16c0-8.835937 7.164062-16 16-16s16 7.164063 16 16zm0 0" fill="#f1f2f2"/><path d="m376 359.863281h-288v-80h288zm0 0" fill="#898890"/><path d="m152 319.863281c0 8.839844-7.164062 16-16 16s-16-7.160156-16-16c0-8.835937 7.164062-16 16-16s16 7.164063 16 16zm0 0" fill="#f1f2f2"/><path d="m376 455.863281h-288v-80h288zm0 0" fill="#898890"/><g fill="#f1f2f2"><path d="m152 415.863281c0 8.839844-7.164062 16-16 16s-16-7.160156-16-16c0-8.835937 7.164062-16 16-16s16 7.164063 16 16zm0 0"/><path d="m336 199.863281h16v16h-16zm0 0"/><path d="m304 199.863281h16v16h-16zm0 0"/><path d="m272 199.863281h16v16h-16zm0 0"/><path d="m240 199.863281h16v16h-16zm0 0"/><path d="m208 199.863281h16v16h-16zm0 0"/><path d="m336 231.863281h16v16h-16zm0 0"/><path d="m304 231.863281h16v16h-16zm0 0"/><path d="m272 231.863281h16v16h-16zm0 0"/><path d="m240 231.863281h16v16h-16zm0 0"/><path d="m208 231.863281h16v16h-16zm0 0"/><path d="m176 199.863281h16v16h-16zm0 0"/><path d="m176 231.863281h16v16h-16zm0 0"/><path d="m336 295.863281h16v16h-16zm0 0"/><path d="m304 295.863281h16v16h-16zm0 0"/><path d="m272 295.863281h16v16h-16zm0 0"/><path d="m240 295.863281h16v16h-16zm0 0"/><path d="m208 295.863281h16v16h-16zm0 0"/><path d="m336 327.863281h16v16h-16zm0 0"/><path d="m304 327.863281h16v16h-16zm0 0"/><path d="m272 327.863281h16v16h-16zm0 0"/><path d="m240 327.863281h16v16h-16zm0 0"/><path d="m208 327.863281h16v16h-16zm0 0"/><path d="m176 295.863281h16v16h-16zm0 0"/><path d="m176 327.863281h16v16h-16zm0 0"/><path d="m336 391.863281h16v16h-16zm0 0"/><path d="m304 391.863281h16v16h-16zm0 0"/><path d="m272 391.863281h16v16h-16zm0 0"/><path d="m240 391.863281h16v16h-16zm0 0"/><path d="m208 391.863281h16v16h-16zm0 0"/><path d="m336 423.863281h16v16h-16zm0 0"/><path d="m304 423.863281h16v16h-16zm0 0"/><path d="m272 423.863281h16v16h-16zm0 0"/><path d="m240 423.863281h16v16h-16zm0 0"/><path d="m208 423.863281h16v16h-16zm0 0"/><path d="m176 391.863281h16v16h-16zm0 0"/><path d="m176 423.863281h16v16h-16zm0 0"/></g></svg></g><rect fill="rgb(255,255,255)" stroke="rgb(255,255,255)" stroke-opacity="1" stroke-width="1" stroke-linecap="butt" stroke-linejoin="miter" stroke-miterlimit="10" fill-opacity="1" height="14" x="82.0938" width="30" y="140.536"/><g transform="translate(12.59375 159.53622692200327)"><text font-family="'Georgia'" font-size="19px" font-style="normal" font-weight="normal" text-decoration="none" text-anchor="middle" fill="rgb(0,0,0)" fill-opacity="1" dy="0.8947368421052632em" transform="translate(84.5 0)">Virtual Proxy (Public)</text></g><g><svg xmlns="http://www.w3.org/2000/svg" viewBox="0 0 384 512" width="45" height="43.22372817993164" fill="rgb(51,102,153)" fill-opacity="1" x="-41.0625" y="-28.3125"><path d="M224 136V0H24C10.7 0 0 10.7 0 24v464c0 13.3 10.7 24 24 24h336c13.3 0 24-10.7 24-24V160H248c-13.2 0-24-10.8-24-24zm160-14.1v6.1H256V0h6.1c6.4 0 12.5 2.5 17 7l97.9 98c4.5 4.5 7 10.6 7 16.9z"/></svg></g><g><svg xmlns="http://www.w3.org/2000/svg" viewBox="0 0 384 512" width="45" height="43.22372817993164" fill="rgb(51,102,153)" fill-opacity="1" x="98.56952667236328" y="-168.22372436523438"><path d="M224 136V0H24C10.7 0 0 10.7 0 24v464c0 13.3 10.7 24 24 24h336c13.3 0 24-10.7 24-24V160H248c-13.2 0-24-10.8-24-24zm160-14.1v6.1H256V0h6.1c6.4 0 12.5 2.5 17 7l97.9 98c4.5 4.5 7 10.6 7 16.9z"/></svg></g><rect fill="rgb(255,255,255)" stroke="rgb(255,255,255)" stroke-opacity="1" stroke-width="1" stroke-linecap="butt" stroke-linejoin="miter" stroke-miterlimit="10" fill-opacity="1" height="30" x="364.062" width="30" y="-154.5"/><g transform="translate(235.5625 -119.5)"><text font-family="'Georgia'" font-size="19px" font-style="normal" font-weight="normal" text-decoration="none" text-anchor="middle" fill="rgb(0,0,0)" fill-opacity="1" dy="0.8947368421052632em" transform="translate(143.5 0)">Ambiente Qlik Sense Enterprise</text></g></g></svg>